<svg width="628" height="658" viewBox="0 0 628 658" fill="none" xmlns="http://www.w3.org/2000/svg">
<path d="M506.997 0H120.254C53.8394 0 0 56.0718 0 125.24V532.38C0 601.548 53.8394 657.62 120.254 657.62H506.997C573.411 657.62 627.251 601.548 627.251 532.38V125.24C627.251 56.0718 573.411 0 506.997 0Z" fill="#1D1D1B"/>
<path d="M340.942 402.108C342.929 397.898 347.231 395.198 351.965 395.198H433.388L415.414 354.828C413.666 355.408 411.679 355.728 409.451 355.728H331.858C325.598 355.728 319.866 359.428 316.956 365.328L243.061 514.808H286.317C286.432 513.598 286.701 512.408 287.162 511.258L340.932 402.098L340.942 402.108Z" fill="#3C3C3C"/>
<path d="M331.859 355.739H409.451C411.679 355.739 413.676 355.419 415.414 354.839C423.393 352.169 426.091 343.839 421.626 334.079L334.345 137.919C328.287 124.669 314.604 124.919 308.248 138.009L127.445 503.589C121.655 515.519 131.141 529.549 143.749 529.549L225.94 529.469C232.201 529.469 237.972 525.159 240.871 519.259L243.061 514.839L316.956 365.359C319.856 359.459 325.598 355.759 331.859 355.759V355.739Z" fill="#FBFCF7"/>
<path d="M500.947 512.197L452.179 402.387C450.249 398.027 445.871 395.207 441.031 395.207H351.955C347.221 395.207 342.929 397.907 340.932 402.117L287.162 511.277C286.701 512.427 286.432 513.627 286.317 514.827C285.654 521.977 290.839 529.437 298.434 529.437H489.665C498.124 528.727 503.376 520.237 500.947 512.197Z" fill="#3BB9FF"/>
</svg>
