<svg width="845" height="126" viewBox="0 0 845 126" fill="none" xmlns="http://www.w3.org/2000/svg">
<path d="M837.766 99.4874C839.614 99.4874 841.154 100.103 842.386 101.335C843.706 102.567 844.366 104.107 844.366 105.955C844.366 107.803 843.706 109.343 842.386 110.575C841.154 111.807 839.614 112.423 837.766 112.423H793.414C791.478 112.423 789.85 111.807 788.53 110.575C787.298 109.255 786.682 107.627 786.682 105.691V26.7554C786.682 24.8194 787.342 23.2354 788.662 22.0034C789.982 20.6834 791.698 20.0234 793.81 20.0234C795.57 20.0234 797.11 20.6834 798.43 22.0034C799.838 23.2354 800.542 24.8194 800.542 26.7554V101.731L797.77 99.4874H837.766Z" fill="#FBFCF7"/>
<path d="M734.99 37.1817L705.29 108.462C704.762 109.87 703.97 110.97 702.914 111.762C701.858 112.554 700.67 112.95 699.35 112.95C697.414 112.95 695.962 112.422 694.994 111.366C694.026 110.222 693.498 108.814 693.41 107.142C693.41 106.526 693.542 105.822 693.806 105.03L727.334 23.9817C727.95 22.4857 728.83 21.3417 729.974 20.5497C731.206 19.7577 732.526 19.4057 733.934 19.4937C735.254 19.4937 736.486 19.8897 737.63 20.6817C738.774 21.4737 739.61 22.5737 740.138 23.9817L773.27 103.842C773.622 104.722 773.798 105.602 773.798 106.482C773.798 108.418 773.138 110.002 771.818 111.234C770.586 112.378 769.178 112.95 767.594 112.95C766.274 112.95 765.042 112.554 763.898 111.762C762.842 110.882 762.05 109.782 761.522 108.462L731.558 37.5777L734.99 37.1817ZM710.57 89.7177L716.51 77.0457H753.866L756.11 89.7177H710.57Z" fill="#FBFCF7"/>
<path d="M656.934 112.423C654.822 112.423 653.106 111.807 651.786 110.575C650.554 109.255 649.938 107.627 649.938 105.691V26.6234H664.062V105.691C664.062 107.627 663.358 109.255 661.95 110.575C660.63 111.807 658.958 112.423 656.934 112.423ZM626.97 32.6954C625.122 32.6954 623.538 32.1234 622.218 30.9794C620.898 29.7474 620.238 28.1634 620.238 26.2274C620.238 24.3794 620.898 22.8834 622.218 21.7394C623.538 20.5954 625.122 20.0234 626.97 20.0234H687.03C688.878 20.0234 690.418 20.6394 691.65 21.8714C692.97 23.0154 693.63 24.5114 693.63 26.3594C693.63 28.2954 692.97 29.8354 691.65 30.9794C690.418 32.1234 688.878 32.6954 687.03 32.6954H626.97Z" fill="#FBFCF7"/>
<path d="M605.507 105.691C605.419 107.627 604.671 109.255 603.263 110.575C601.943 111.807 600.358 112.423 598.51 112.423C596.486 112.423 594.815 111.807 593.495 110.575C592.263 109.255 591.646 107.627 591.646 105.691V26.7554C591.646 24.8194 592.306 23.2354 593.626 22.0034C594.946 20.6834 596.663 20.0234 598.775 20.0234C600.535 20.0234 602.075 20.6834 603.395 22.0034C604.803 23.2354 605.507 24.8194 605.507 26.7554V105.691Z" fill="#FBFCF7"/>
<path d="M542.637 113.743C535.949 113.743 529.701 112.555 523.893 110.179C518.085 107.715 512.981 104.327 508.581 100.015C504.269 95.6151 500.881 90.5551 498.417 84.8351C495.953 79.1151 494.721 72.9111 494.721 66.2231C494.721 59.5351 495.953 53.3311 498.417 47.6111C500.881 41.8911 504.269 36.8751 508.581 32.5631C512.981 28.1631 518.085 24.7751 523.893 22.3991C529.701 19.9351 535.949 18.7031 542.637 18.7031C546.949 18.7031 551.129 19.1871 555.177 20.1551C559.225 21.1231 562.877 22.5311 566.133 24.3791C567.277 24.9951 568.113 25.8311 568.641 26.8871C569.169 27.8551 569.433 28.8231 569.433 29.7911C569.433 31.6391 568.817 33.2671 567.585 34.6751C566.441 35.9951 564.989 36.6551 563.229 36.6551C562.613 36.6551 561.953 36.5671 561.249 36.3911C560.633 36.2151 560.061 35.9951 559.533 35.7311C557.069 34.4991 554.429 33.5751 551.613 32.9591C548.797 32.2551 545.805 31.9031 542.637 31.9031C536.301 31.9031 530.581 33.4431 525.477 36.5231C520.373 39.5151 516.325 43.6071 513.333 48.7991C510.429 53.9911 508.977 59.7991 508.977 66.2231C508.977 72.5591 510.429 78.3671 513.333 83.6471C516.325 88.8391 520.373 92.9751 525.477 96.0551C530.581 99.0471 536.301 100.543 542.637 100.543C545.717 100.543 548.973 100.191 552.405 99.4871C555.837 98.6951 558.741 97.6831 561.117 96.4511L560.061 100.015V74.9351L562.173 76.7831H544.881C542.945 76.7831 541.317 76.1671 539.997 74.9351C538.765 73.7031 538.149 72.1191 538.149 70.1831C538.149 68.2471 538.765 66.6631 539.997 65.4311C541.317 64.1991 542.945 63.5831 544.881 63.5831H567.717C569.565 63.5831 571.105 64.2431 572.337 65.5631C573.657 66.7951 574.317 68.3791 574.317 70.3151V99.6191C574.317 101.027 573.965 102.215 573.261 103.183C572.557 104.151 571.765 104.943 570.885 105.559C566.925 108.023 562.525 110.003 557.685 111.499C552.933 112.995 547.917 113.743 542.637 113.743Z" fill="#FBFCF7"/>
<path d="M478.405 105.691C478.317 107.627 477.569 109.255 476.161 110.575C474.841 111.807 473.257 112.423 471.409 112.423C469.385 112.423 467.713 111.807 466.393 110.575C465.161 109.255 464.545 107.627 464.545 105.691V26.7554C464.545 24.8194 465.205 23.2354 466.525 22.0034C467.845 20.6834 469.561 20.0234 471.673 20.0234C473.433 20.0234 474.973 20.6834 476.293 22.0034C477.701 23.2354 478.405 24.8194 478.405 26.7554V105.691Z" fill="#FBFCF7"/>
<path d="M382.617 112.423C380.505 112.423 378.657 111.807 377.073 110.575C375.489 109.255 374.697 107.627 374.697 105.691V26.7554C374.697 24.8194 375.357 23.2354 376.677 22.0034C377.997 20.6834 379.581 20.0234 381.429 20.0234H418.653C423.405 20.0234 427.761 21.2114 431.721 23.5874C435.681 25.8754 438.849 29.0874 441.225 33.2234C443.689 37.2714 444.921 41.9354 444.921 47.2154C444.921 50.7354 444.217 54.1234 442.809 57.3794C441.401 60.5474 439.509 63.3634 437.133 65.8274C434.757 68.2914 432.073 70.1394 429.081 71.3714L427.629 68.8634C430.357 69.8314 432.733 71.2394 434.757 73.0874C436.781 74.8474 438.365 76.9594 439.509 79.4234C440.741 81.7994 441.401 84.5274 441.489 87.6074C441.753 90.3354 441.973 92.6234 442.149 94.4714C442.413 96.2314 442.765 97.6834 443.205 98.8274C443.645 99.9714 444.437 100.851 445.581 101.467C447.165 102.347 448.133 103.667 448.485 105.427C448.925 107.187 448.573 108.771 447.429 110.179C446.637 111.235 445.625 111.939 444.393 112.291C443.249 112.555 442.061 112.599 440.829 112.423C439.597 112.159 438.541 111.807 437.661 111.367C436.253 110.487 434.801 109.255 433.305 107.671C431.897 105.999 430.753 103.711 429.873 100.807C428.993 97.9034 428.553 94.0754 428.553 89.3234C428.553 87.1234 428.201 85.2314 427.497 83.6474C426.793 82.0634 425.825 80.7874 424.593 79.8194C423.361 78.7634 421.909 78.0154 420.237 77.5754C418.565 77.0474 416.717 76.7834 414.693 76.7834H386.709L388.557 74.1434V105.691C388.557 107.627 388.029 109.255 386.973 110.575C385.917 111.807 384.465 112.423 382.617 112.423ZM386.841 65.2994H418.389C420.413 65.2114 422.349 64.4194 424.197 62.9234C426.133 61.3394 427.673 59.2274 428.817 56.5874C430.049 53.9474 430.665 50.9554 430.665 47.6114C430.665 43.3874 429.389 39.8674 426.837 37.0514C424.373 34.1474 421.425 32.6954 417.993 32.6954H387.105L388.557 29.2634V68.0714L386.841 65.2994Z" fill="#FBFCF7"/>
<path d="M346.844 19.8906C348.78 19.8906 350.32 20.5506 351.464 21.8706C352.608 23.1026 353.18 24.6866 353.18 26.6226V76.6506C353.18 83.6906 351.64 89.9826 348.56 95.5266C345.48 101.071 341.256 105.427 335.888 108.595C330.52 111.675 324.316 113.215 317.276 113.215C310.324 113.215 304.12 111.675 298.664 108.595C293.296 105.427 289.028 101.071 285.86 95.5266C282.78 89.9826 281.24 83.6906 281.24 76.6506V26.6226C281.24 24.6866 281.9 23.1026 283.22 21.8706C284.54 20.5506 286.256 19.8906 288.368 19.8906C290.04 19.8906 291.536 20.5506 292.856 21.8706C294.264 23.1026 294.968 24.6866 294.968 26.6226V76.6506C294.968 81.3146 295.98 85.4066 298.004 88.9266C300.116 92.3586 302.888 95.0866 306.32 97.1106C309.752 99.0466 313.404 100.015 317.276 100.015C321.5 100.015 325.372 99.0466 328.892 97.1106C332.412 95.0866 335.228 92.3586 337.34 88.9266C339.54 85.4066 340.64 81.3146 340.64 76.6506V26.6226C340.64 24.6866 341.168 23.1026 342.224 21.8706C343.368 20.5506 344.908 19.8906 346.844 19.8906Z" fill="#FBFCF7"/>
<path d="M230.838 37.1817L201.138 108.462C200.61 109.87 199.818 110.97 198.762 111.762C197.706 112.554 196.518 112.95 195.198 112.95C193.262 112.95 191.81 112.422 190.842 111.366C189.874 110.222 189.346 108.814 189.258 107.142C189.258 106.526 189.39 105.822 189.654 105.03L223.182 23.9817C223.798 22.4857 224.678 21.3417 225.822 20.5497C227.054 19.7577 228.374 19.4057 229.782 19.4937C231.102 19.4937 232.334 19.8897 233.478 20.6817C234.622 21.4737 235.458 22.5737 235.986 23.9817L269.118 103.842C269.47 104.722 269.646 105.602 269.646 106.482C269.646 108.418 268.986 110.002 267.666 111.234C266.434 112.378 265.026 112.95 263.442 112.95C262.122 112.95 260.89 112.554 259.746 111.762C258.69 110.882 257.898 109.782 257.37 108.462L227.406 37.5777L230.838 37.1817ZM206.418 89.7177L212.358 77.0457H249.714L251.958 89.7177H206.418Z" fill="#FBFCF7"/>
<path d="M70.0041 85.5708C70.6541 84.2508 72.0541 83.4108 73.5841 83.4108H100.064L94.2241 70.8008C93.6541 70.9808 93.0141 71.0807 92.2841 71.0807H67.0441C65.0041 71.0807 63.1441 72.2307 62.1941 74.0807L38.1641 120.771H52.2341C52.2741 120.391 52.3541 120.021 52.5041 119.661L69.9941 85.5708H70.0041Z" fill="#3C3C3C"/>
<path d="M67.0548 71.0914H92.2948C93.0148 71.0914 93.6648 70.9914 94.2348 70.8114C96.8248 69.9814 97.7048 67.3814 96.2548 64.3314L67.8648 3.07139C65.8948 -1.06861 61.4448 -0.988613 59.3748 3.10139L0.564838 117.271C-1.31516 120.991 1.76483 125.381 5.86483 125.381L32.5948 125.351C34.6348 125.351 36.5048 124.001 37.4548 122.161L38.1648 120.781L62.1948 74.0914C63.1348 72.2514 65.0048 71.0914 67.0448 71.0914H67.0548Z" fill="#FBFCF7"/>
<path d="M122.056 119.95L106.196 85.6501C105.566 84.2901 104.146 83.4102 102.566 83.4102H73.5956C72.0556 83.4102 70.6556 84.2502 70.0156 85.5702L52.5256 119.66C52.3756 120.02 52.2856 120.39 52.2556 120.77C52.0356 123 53.7256 125.33 56.1956 125.33H118.396C121.146 125.11 122.856 122.46 122.066 119.95H122.056Z" fill="#3BB9FF"/>
</svg>
