<svg width="1626" height="1624" viewBox="0 0 1626 1624" fill="none" xmlns="http://www.w3.org/2000/svg">
<g clip-path="url(#clip0_108_22)">
<path d="M867.83 1168.89V1436L1152.83 1151C1163.15 1140.69 1177.13 1134.9 1191.72 1134.9C1198.95 1134.9 1206.1 1136.33 1212.78 1139.1C1219.45 1141.87 1225.51 1145.93 1230.62 1151.04L1230.93 1151.36L1515.69 1436V812.21C1515.69 797.623 1521.48 783.634 1531.8 773.319C1542.11 763.005 1556.1 757.21 1570.69 757.21C1585.28 757.21 1599.27 763.005 1609.58 773.319C1619.9 783.634 1625.69 797.623 1625.69 812.21V1568.79C1625.69 1579.67 1622.46 1590.3 1616.42 1599.34C1610.38 1608.38 1601.79 1615.43 1591.74 1619.59C1581.69 1623.75 1570.64 1624.84 1559.97 1622.72C1549.3 1620.6 1539.5 1615.37 1531.81 1607.68L1191.81 1267.68L851.81 1607.68C844.118 1615.37 834.319 1620.6 823.652 1622.72C812.985 1624.84 801.929 1623.75 791.881 1619.59C781.833 1615.43 773.245 1608.38 767.202 1599.34C761.159 1590.3 757.932 1579.67 757.93 1568.79V1232.27" fill="url(#paint0_linear_108_22)"/>
<path d="M757.84 614.08L867.84 677.46V55C867.83 44.1326 864.6 33.5117 858.559 24.4781C852.518 15.4444 843.937 8.40284 833.897 4.2422C823.858 0.0815606 812.811 -1.01166 802.15 1.10054C791.49 3.21273 781.695 8.43565 774 16.1101L434 356.11L94.0001 16.1101C86.3141 8.38065 76.5046 3.10943 65.8171 0.965597C55.1296 -1.17824 44.0461 -0.0979848 33.9737 4.0692C23.9013 8.23639 15.2943 15.3026 9.24539 24.3706C3.19651 33.4387 -0.0214296 44.0997 0.000107404 55V811.58C0.000107404 826.167 5.79473 840.156 16.1092 850.471C26.4237 860.785 40.4132 866.58 55.0001 866.58C69.587 866.58 83.5765 860.785 93.891 850.471C104.205 840.156 110 826.167 110 811.58V187.76L395 472.76C405.312 483.059 419.291 488.843 433.865 488.843C448.439 488.843 462.418 483.059 472.73 472.76L757.84 187.76V614.08Z" fill="url(#paint1_linear_108_22)"/>
<path d="M1068.63 898.86L589.87 623C585.015 620.203 579.51 618.733 573.908 618.737C568.305 618.741 562.802 620.219 557.951 623.023C553.1 625.826 549.073 629.857 546.273 634.71C543.473 639.563 542 645.067 542 650.67V1202.27C541.986 1207.88 543.45 1213.39 546.245 1218.26C549.04 1223.12 553.067 1227.16 557.92 1229.97C562.774 1232.78 568.282 1234.27 573.891 1234.27C579.5 1234.28 585.012 1232.8 589.87 1230L1068.65 954.18C1073.5 951.378 1077.53 947.349 1080.33 942.497C1083.13 937.645 1084.6 932.142 1084.6 926.54C1084.6 920.938 1083.13 915.435 1080.33 910.583C1077.53 905.732 1073.5 901.702 1068.65 898.9" fill="url(#paint2_linear_108_22)"/>
</g>
<defs>
<linearGradient id="paint0_linear_108_22" x1="757.84" y1="1190.5" x2="1625.67" y2="1190.5" gradientUnits="userSpaceOnUse">
<stop stop-color="#05374B"/>
<stop offset="1" stop-color="#4CB58A"/>
</linearGradient>
<linearGradient id="paint1_linear_108_22" x1="867.83" y1="433.28" x2="0.000103453" y2="433.28" gradientUnits="userSpaceOnUse">
<stop stop-color="#05374B"/>
<stop offset="1" stop-color="#4CB58A"/>
</linearGradient>
<linearGradient id="paint2_linear_108_22" x1="542" y1="926.5" x2="1084.61" y2="926.5" gradientUnits="userSpaceOnUse">
<stop stop-color="#FFD000"/>
<stop offset="1" stop-color="#DF4712"/>
</linearGradient>
<clipPath id="clip0_108_22">
<rect width="1625.67" height="1623.78" fill="white"/>
</clipPath>
</defs>
</svg>
